<?xml version="1.0" standalone="no"?>
<!DOCTYPE svg PUBLIC "-//W3C//DTD SVG 20010904//EN"
 "http://www.w3.org/TR/2001/REC-SVG-20010904/DTD/svg10.dtd">
<svg version="1.0" xmlns="http://www.w3.org/2000/svg"
 width="976.000000pt" height="1080.000000pt" viewBox="0 0 976.000000 1080.000000"
 preserveAspectRatio="xMidYMid meet">
<metadata>
Created by potrace 1.16, written by Peter Selinger 2001-2019
</metadata>
<g transform="translate(0.000000,1080.000000) scale(0.100000,-0.100000)"
fill="#000000" stroke="none">
<path d="M4625 10784 c-191 -32 -350 -93 -562 -216 -76 -44 -228 -132 -338
-195 -110 -64 -258 -150 -330 -191 -71 -41 -173 -100 -225 -130 -52 -30 -153
-89 -225 -130 -71 -42 -213 -123 -315 -182 -102 -59 -261 -151 -355 -205 -93
-54 -213 -123 -265 -153 -52 -30 -153 -89 -225 -130 -161 -93 -552 -319 -825
-476 -113 -65 -227 -132 -255 -149 -354 -220 -596 -565 -681 -972 -18 -87 -19
-171 -19 -2265 l0 -2175 22 -91 c108 -442 349 -762 749 -994 223 -128 572
-330 724 -418 52 -30 151 -87 220 -127 69 -40 168 -97 220 -127 52 -30 172
-99 265 -153 94 -54 253 -146 355 -205 102 -59 244 -140 315 -182 157 -91 366
-211 495 -286 202 -117 429 -247 510 -295 351 -203 445 -248 614 -292 149 -39
241 -48 434 -42 307 9 478 64 817 264 66 38 212 123 325 188 113 65 273 157
355 205 83 48 242 140 355 205 113 65 273 157 355 205 83 48 242 140 355 205
113 65 273 157 355 205 83 48 224 130 315 182 1053 607 1013 581 1173 748 199
206 326 445 389 733 l23 102 0 2155 0 2155 -23 102 c-62 283 -187 521 -378
722 -153 161 -188 185 -729 496 -132 76 -323 186 -425 245 -102 59 -358 208
-570 330 -212 122 -475 274 -585 337 -110 64 -285 165 -390 226 -104 60 -264
152 -355 205 -91 52 -248 143 -350 202 -482 280 -578 323 -824 365 -110 19
-378 18 -491 -1z m810 -3424 c282 -43 502 -109 730 -221 131 -64 285 -156 285
-170 0 -7 -67 -115 -270 -429 -25 -38 -78 -121 -118 -185 -40 -63 -77 -117
-81 -120 -5 -3 -54 20 -108 52 -292 169 -546 243 -826 243 -265 -1 -415 -47
-483 -150 -39 -58 -46 -170 -15 -234 26 -53 82 -106 148 -139 62 -32 309 -112
543 -177 102 -28 242 -69 312 -91 702 -218 998 -580 975 -1191 -6 -174 -28
-263 -96 -403 -160 -325 -510 -565 -974 -669 -227 -51 -313 -60 -597 -60 -276
0 -394 10 -620 55 -414 82 -741 227 -959 426 l-64 58 35 45 c19 25 106 138
194 252 87 113 197 256 243 316 l85 110 63 -49 c365 -280 929 -405 1338 -298
182 47 250 122 249 274 -1 84 -16 120 -74 181 -82 86 -222 141 -735 288 -481
137 -721 255 -921 451 -131 129 -206 254 -261 434 -24 78 -27 102 -27 261 -1
156 2 184 23 260 87 308 301 549 634 716 160 81 347 137 557 168 160 24 168
24 430 21 186 -3 279 -9 385 -25z"/>
</g>
</svg>
