<?xml version="1.0" standalone="no"?>
<!DOCTYPE svg PUBLIC "-//W3C//DTD SVG 20010904//EN"
 "http://www.w3.org/TR/2001/REC-SVG-20010904/DTD/svg10.dtd">
<svg version="1.0" xmlns="http://www.w3.org/2000/svg"
 width="3364.000000pt" height="1080.000000pt" viewBox="0 0 3364.000000 1080.000000"
 preserveAspectRatio="xMidYMid meet">
<metadata>
Created by potrace 1.16, written by Peter Selinger 2001-2019
</metadata>
<g transform="translate(0.000000,1080.000000) scale(0.100000,-0.100000)"
fill="#000000" stroke="none">
<path d="M1 9163 c1 -901 4 -1624 6 -1608 29 227 132 484 270 678 74 104 226
256 329 328 112 80 3549 2064 3664 2115 109 49 239 89 355 108 68 12 -261 14
-2272 15 l-2353 1 1 -1637z"/>
<path d="M5125 10784 c186 -33 341 -91 525 -197 999 -573 3414 -1973 3470
-2011 106 -71 303 -272 374 -378 110 -167 185 -344 228 -541 l23 -102 0 -2155
0 -2155 -23 -102 c-43 -197 -116 -370 -223 -533 -76 -115 -270 -313 -379 -387
-56 -37 -3180 -1847 -3540 -2050 -123 -70 -291 -128 -455 -157 -70 -12 1782
-14 14218 -15 l14297 -1 0 3675 c0 2021 -1 3675 -3 3675 -2 0 -70 -99 -152
-220 l-149 -220 -30 21 c-50 33 -134 69 -200 84 -148 35 -264 9 -352 -80 -70
-70 -94 -144 -94 -291 l0 -104 280 0 280 0 0 -285 0 -285 -280 0 -280 0 0
-895 0 -895 -365 0 -365 0 0 895 0 895 -190 0 -190 0 0 285 0 285 189 0 188 0
6 158 c4 112 11 179 26 236 115 436 462 689 946 689 265 0 484 -61 669 -187
l66 -46 0 1705 0 1705 -14297 -1 c-12420 -1 -14287 -3 -14218 -15z m7582
-4180 c246 -36 453 -113 651 -242 10 -7 -23 -65 -133 -238 -81 -126 -153 -235
-160 -243 -11 -11 -24 -6 -82 28 -99 59 -217 108 -319 132 -73 17 -112 20
-224 17 -121 -3 -141 -6 -192 -30 -66 -31 -98 -73 -98 -131 0 -112 76 -156
440 -257 520 -143 719 -285 795 -565 26 -94 31 -286 11 -379 -50 -222 -227
-405 -491 -507 -143 -56 -286 -80 -503 -86 -212 -6 -320 3 -498 43 -251 55
-407 129 -572 271 l-34 28 182 237 182 236 62 -45 c122 -90 291 -160 457 -189
157 -27 380 -5 448 44 69 51 88 128 49 201 -40 74 -142 120 -493 220 -305 87
-462 167 -593 300 -108 111 -172 272 -172 436 0 360 289 639 745 719 112 20
410 20 542 0z m8119 5 c427 -59 757 -350 889 -783 51 -167 66 -269 72 -483 l6
-203 -838 0 -837 0 6 -47 c12 -83 68 -183 144 -255 77 -72 150 -111 266 -140
70 -18 101 -20 255 -15 137 4 194 10 256 27 94 25 221 83 323 147 41 25 77 42
82 37 18 -19 290 -445 290 -454 0 -14 -166 -123 -259 -170 -98 -50 -283 -112
-416 -140 -127 -27 -437 -38 -570 -21 -520 69 -898 371 -1028 823 -48 165 -60
270 -54 476 5 210 25 312 92 480 151 377 489 649 886 716 102 17 330 20 435 5z
m9519 -14 c244 -55 441 -159 609 -322 302 -296 433 -737 346 -1173 -90 -448
-389 -793 -810 -934 -146 -49 -257 -66 -424 -66 -159 0 -285 17 -408 56 -436
137 -742 481 -844 949 -24 112 -24 398 0 510 117 537 486 895 1021 990 105 19
410 13 510 -10z m-12068 -29 c287 -61 534 -259 672 -539 90 -184 130 -359 138
-607 6 -195 -6 -305 -52 -465 -96 -335 -352 -622 -669 -751 -198 -81 -433
-116 -630 -96 -93 10 -266 49 -338 77 -17 7 -18 -21 -18 -504 l0 -511 -365 0
-365 0 0 1685 0 1685 354 0 353 0 6 -47 c4 -27 9 -81 13 -121 l7 -72 71 68
c111 105 292 188 466 212 86 12 267 5 357 -14z m5527 -2 c34 -9 64 -19 68 -22
6 -6 -84 -533 -107 -629 -5 -21 -5 -21 -62 -5 -85 24 -308 23 -388 -2 -199
-60 -332 -208 -370 -409 -12 -64 -15 -192 -15 -698 l0 -619 -365 0 -365 0 0
1180 0 1180 350 0 c273 0 350 -3 350 -12 0 -7 5 -70 11 -140 l12 -127 66 68
c193 198 364 266 640 255 63 -2 142 -11 175 -20z m2016 -5 c350 -87 612 -356
724 -742 46 -159 59 -258 59 -452 0 -147 -4 -199 -21 -282 -55 -256 -158 -457
-321 -622 -204 -208 -457 -322 -783 -353 -181 -17 -316 0 -530 66 l-48 15 0
-509 0 -510 -365 0 -365 0 0 1685 0 1685 349 0 349 0 6 -23 c3 -12 8 -66 12
-120 l7 -97 57 54 c132 126 306 203 520 230 76 9 267 -4 350 -25z m2820 3 c59
-16 65 -20 62 -42 -2 -26 -85 -489 -103 -576 l-10 -52 -52 14 c-85 24 -260 29
-347 10 -165 -35 -298 -132 -364 -268 -65 -131 -66 -143 -66 -840 l0 -628
-370 0 -370 0 0 1180 0 1180 354 0 353 0 7 -92 c4 -51 10 -114 13 -140 l5 -47
47 51 c61 68 180 162 250 198 66 33 142 56 226 70 86 13 288 3 365 -18z
m-14080 -719 c0 -433 4 -723 11 -763 29 -182 140 -299 305 -319 249 -30 456
122 509 374 12 58 15 188 15 738 l0 667 365 0 365 0 0 -1180 0 -1180 -354 0
-354 0 -7 120 -7 121 -57 -54 c-102 -97 -226 -167 -378 -214 -82 -25 -100 -27
-273 -27 -218 0 -286 14 -440 91 -77 39 -111 63 -181 133 -96 95 -147 177
-190 306 -56 166 -59 216 -59 1088 l0 796 365 0 365 0 0 -697z"/>
<path d="M20501 6040 c-186 -39 -358 -212 -378 -378 l-6 -52 493 0 493 0 -7
53 c-9 69 -65 182 -118 236 -54 55 -128 103 -193 126 -58 20 -218 29 -284 15z"/>
<path d="M29913 5965 c-154 -42 -274 -148 -348 -307 -145 -314 -32 -718 240
-859 91 -47 159 -63 270 -62 247 1 442 163 515 425 99 355 -77 722 -385 803
-73 19 -222 19 -292 0z"/>
<path d="M17757 5949 c-118 -28 -257 -139 -311 -250 -56 -116 -58 -135 -63
-527 l-5 -362 64 -29 c34 -17 98 -37 140 -45 90 -19 273 -21 350 -5 208 43
369 223 414 464 20 107 14 295 -11 390 -66 243 -230 377 -458 374 -45 -1 -99
-5 -120 -10z"/>
<path d="M25244 5940 c-125 -40 -236 -137 -290 -255 -50 -110 -54 -144 -54
-526 l0 -357 53 -22 c92 -40 149 -51 292 -57 165 -7 225 3 325 53 215 108 333
377 300 680 -30 271 -149 436 -353 490 -74 20 -200 17 -273 -6z"/>
<path d="M4765 7383 c-166 -14 -412 -68 -550 -120 -190 -71 -386 -194 -510
-318 -137 -138 -217 -271 -271 -452 -35 -118 -44 -317 -20 -446 68 -359 316
-636 726 -812 144 -62 235 -93 505 -170 476 -136 628 -196 709 -280 57 -58 81
-131 72 -214 -17 -149 -105 -215 -346 -262 -83 -17 -361 -17 -465 0 -281 44
-571 162 -773 317 l-68 51 -278 -361 -278 -361 63 -58 c138 -126 370 -257 579
-327 335 -112 734 -169 1095 -157 718 24 1262 294 1475 732 69 142 91 230 97
403 22 583 -246 937 -884 1162 -48 17 -199 62 -336 100 -291 82 -542 163 -610
197 -69 34 -133 97 -153 148 -26 70 -17 173 22 227 37 54 114 100 202 123 102
27 357 32 497 11 188 -29 410 -113 619 -235 72 -41 92 -49 102 -39 19 21 464
719 464 728 0 13 -220 142 -316 186 -261 120 -547 194 -864 223 -106 10 -410
12 -505 4z"/>
<path d="M1 1638 l-1 -1638 2353 1 c2011 1 2340 3 2272 15 -116 19 -246 59
-355 108 -116 51 -3553 2035 -3664 2115 -103 72 -255 225 -329 328 -138 194
-241 451 -270 678 -2 17 -5 -707 -6 -1607z"/>
</g>
</svg>
