<?xml version="1.0" standalone="no"?>
<!DOCTYPE svg PUBLIC "-//W3C//DTD SVG 20010904//EN"
 "http://www.w3.org/TR/2001/REC-SVG-20010904/DTD/svg10.dtd">
<svg version="1.0" xmlns="http://www.w3.org/2000/svg"
 width="976.000000pt" height="1080.000000pt" viewBox="0 0 976.000000 1080.000000"
 preserveAspectRatio="xMidYMid meet">
<metadata>
Created by potrace 1.16, written by Peter Selinger 2001-2019
</metadata>
<g transform="translate(0.000000,1080.000000) scale(0.100000,-0.100000)"
fill="#000000" stroke="none">
<path d="M1 9163 c1 -901 4 -1624 6 -1608 29 227 132 484 270 678 74 104 226
256 329 328 112 80 3549 2064 3664 2115 109 49 239 89 355 108 68 12 -261 14
-2272 15 l-2353 1 1 -1637z"/>
<path d="M5125 10784 c186 -33 341 -91 525 -197 999 -573 3414 -1973 3470
-2011 106 -71 303 -272 374 -378 110 -167 185 -344 228 -541 l23 -102 0 -2155
0 -2155 -23 -102 c-43 -197 -116 -370 -223 -533 -76 -115 -270 -313 -379 -387
-56 -37 -3180 -1847 -3540 -2050 -123 -70 -291 -128 -455 -157 -71 -13 200
-14 2278 -15 l2357 -1 0 5400 0 5400 -2357 -1 c-2075 -1 -2348 -3 -2278 -15z"/>
<path d="M4765 7383 c-166 -14 -412 -68 -550 -120 -190 -71 -386 -194 -510
-318 -137 -138 -217 -271 -271 -452 -35 -118 -44 -317 -20 -446 68 -359 316
-636 726 -812 144 -62 235 -93 505 -170 476 -136 628 -196 709 -280 57 -58 81
-131 72 -214 -17 -149 -105 -215 -346 -262 -83 -17 -361 -17 -465 0 -281 44
-571 162 -773 317 l-68 51 -278 -361 -278 -361 63 -58 c138 -126 370 -257 579
-327 335 -112 734 -169 1095 -157 718 24 1262 294 1475 732 69 142 91 230 97
403 22 583 -246 937 -884 1162 -48 17 -199 62 -336 100 -291 82 -542 163 -610
197 -69 34 -133 97 -153 148 -26 70 -17 173 22 227 37 54 114 100 202 123 102
27 357 32 497 11 188 -29 410 -113 619 -235 72 -41 92 -49 102 -39 19 21 464
719 464 728 0 13 -220 142 -316 186 -261 120 -547 194 -864 223 -106 10 -410
12 -505 4z"/>
<path d="M1 1638 l-1 -1638 2353 1 c2011 1 2340 3 2272 15 -116 19 -246 59
-355 108 -116 51 -3553 2035 -3664 2115 -103 72 -255 225 -329 328 -138 194
-241 451 -270 678 -2 17 -5 -707 -6 -1607z"/>
</g>
</svg>
