<?xml version="1.0" ?><svg height="32" id="svg17515" version="1.1" viewBox="0 0 32 32.000001" width="32" xmlns="http://www.w3.org/2000/svg" xmlns:cc="http://creativecommons.org/ns#" xmlns:dc="http://purl.org/dc/elements/1.1/" xmlns:inkscape="http://www.inkscape.org/namespaces/inkscape" xmlns:rdf="http://www.w3.org/1999/02/22-rdf-syntax-ns#" xmlns:sodipodi="http://sodipodi.sourceforge.net/DTD/sodipodi-0.dtd" xmlns:svg="http://www.w3.org/2000/svg"><defs id="defs17517"><clipPath clipPathUnits="userSpaceOnUse" id="clipPath32617-9-8-8-9"><circle cx="-64.623535" cy="50.047192" id="path32619-2-3-5-1" r="38.553814" style="fill:#4bb7c0;fill-opacity:1;stroke:none" transform="matrix(9.3443438,0,0,9.3443438,-627.91229,-5859.5225)"/></clipPath><clipPath clipPathUnits="userSpaceOnUse" id="clipPath19550"><circle cx="-64.623535" cy="50.047192" id="circle19552" r="38.553814" style="fill:#4bb7c0;fill-opacity:1;stroke:none" transform="matrix(9.3443438,0,0,9.3443438,-627.91229,-5859.5225)"/></clipPath></defs><g id="layer1" transform="translate(0,-1020.3622)"><g id="g42920" style="display:inline" transform="translate(486.84291,157.50222)"><path d="m -470.86914,890.15235 a 0.50004997,0.50004997 0 0 0 -0.49219,0.50781 l 0,1.23633 a 0.50004997,0.50004997 0 1 0 1,0 l 0,-1.23633 a 0.50004997,0.50004997 0 0 0 -0.50781,-0.50781 z" id="path147353" style="color:#000000;font-style:normal;font-variant:normal;font-weight:normal;font-stretch:normal;font-size:medium;line-height:normal;font-family:sans-serif;text-indent:0;text-align:start;text-decoration:none;text-decoration-line:none;text-decoration-style:solid;text-decoration-color:#000000;letter-spacing:normal;word-spacing:normal;text-transform:none;direction:ltr;writing-mode:lr-tb;baseline-shift:baseline;text-anchor:start;white-space:normal;clip-rule:nonzero;display:inline;overflow:visible;visibility:visible;opacity:1;isolation:auto;mix-blend-mode:normal;color-interpolation:sRGB;color-interpolation-filters:linearRGB;solid-color:#000000;solid-opacity:1;fill:#a9c3c2;fill-opacity:1;fill-rule:evenodd;stroke:none;stroke-width:0.99999994px;stroke-linecap:round;stroke-linejoin:round;stroke-miterlimit:4;stroke-dasharray:none;stroke-dashoffset:0;stroke-opacity:1;color-rendering:auto;image-rendering:auto;shape-rendering:auto;text-rendering:auto;enable-background:accumulate"/><path d="m -470.86914,890.15319 a 0.50004997,0.52893211 0 0 0 -0.49219,0.53714 l 0,0.26444 c 0.23994,0.15881 0.51758,0.34295 0.51758,0.34295 0,0 0.26973,-0.17791 0.48242,-0.31815 l 0,-0.28924 a 0.50004997,0.52893211 0 0 0 -0.50781,-0.53714 z" id="path42837" style="opacity:0.15;fill:#000000;fill-opacity:1;fill-rule:evenodd;stroke:none;stroke-width:1px;stroke-linecap:butt;stroke-linejoin:miter;stroke-opacity:1"/><path d="m -475.35352,865.31641 a 0.50004997,0.50004997 0 1 0 0,1 c 1.38268,0 2.49219,1.11146 2.49219,2.49414 a 0.50004997,0.50004997 0 1 0 1,0 c 0,-1.92312 -1.56908,-3.49414 -3.49219,-3.49414 z" id="path147373" style="color:#000000;font-style:normal;font-variant:normal;font-weight:normal;font-stretch:normal;font-size:medium;line-height:normal;font-family:sans-serif;text-indent:0;text-align:start;text-decoration:none;text-decoration-line:none;text-decoration-style:solid;text-decoration-color:#000000;letter-spacing:normal;word-spacing:normal;text-transform:none;direction:ltr;writing-mode:lr-tb;baseline-shift:baseline;text-anchor:start;white-space:normal;clip-rule:nonzero;display:inline;overflow:visible;visibility:visible;opacity:1;isolation:auto;mix-blend-mode:normal;color-interpolation:sRGB;color-interpolation-filters:linearRGB;solid-color:#000000;solid-opacity:1;fill:#a9c3c2;fill-opacity:1;fill-rule:nonzero;stroke:none;stroke-width:0.99999994;stroke-linecap:round;stroke-linejoin:round;stroke-miterlimit:4;stroke-dasharray:none;stroke-dashoffset:0;stroke-opacity:1;color-rendering:auto;image-rendering:auto;shape-rendering:auto;text-rendering:auto;enable-background:accumulate"/><path d="m -466.36914,865.31641 c -1.9231,0 -3.49219,1.57102 -3.49219,3.49414 a 0.50004997,0.50004997 0 1 0 1,0 c 0,-1.38268 1.10951,-2.49414 2.49219,-2.49414 a 0.50004997,0.50004997 0 1 0 0,-1 z" id="path147376" style="color:#000000;font-style:normal;font-variant:normal;font-weight:normal;font-stretch:normal;font-size:medium;line-height:normal;font-family:sans-serif;text-indent:0;text-align:start;text-decoration:none;text-decoration-line:none;text-decoration-style:solid;text-decoration-color:#000000;letter-spacing:normal;word-spacing:normal;text-transform:none;direction:ltr;writing-mode:lr-tb;baseline-shift:baseline;text-anchor:start;white-space:normal;clip-rule:nonzero;display:inline;overflow:visible;visibility:visible;opacity:1;isolation:auto;mix-blend-mode:normal;color-interpolation:sRGB;color-interpolation-filters:linearRGB;solid-color:#000000;solid-opacity:1;fill:#a9c3c2;fill-opacity:1;fill-rule:nonzero;stroke:none;stroke-width:0.99999994;stroke-linecap:round;stroke-linejoin:round;stroke-miterlimit:4;stroke-dasharray:none;stroke-dashoffset:0;stroke-opacity:1;color-rendering:auto;image-rendering:auto;shape-rendering:auto;text-rendering:auto;enable-background:accumulate"/><path d="m -469.70898,867.84658 c -0.0896,0.30844 -0.15235,0.62829 -0.15235,0.96484 a 0.50004997,0.50004997 0 1 0 1,0 c 0,-0.19505 0.0265,-0.38451 0.0684,-0.56641 -0.28445,-0.17103 -0.59127,-0.30191 -0.91601,-0.39843 z" id="path42825" style="fill:#9eb6b5;fill-opacity:1;fill-rule:evenodd;stroke:none;stroke-width:1px;stroke-linecap:butt;stroke-linejoin:miter;stroke-opacity:1"/><path d="m -472.00977,867.85634 c -0.3243,0.0995 -0.63259,0.23232 -0.91601,0.40625 0.0392,0.17648 0.0644,0.36011 0.0644,0.54883 a 0.50004997,0.50004997 0 1 0 1,0 c 0,-0.33287 -0.0607,-0.64963 -0.14844,-0.95508 z" id="path42827" style="fill:#9eb6b5;fill-opacity:1;fill-rule:evenodd;stroke:none;stroke-width:1px;stroke-linecap:butt;stroke-linejoin:miter;stroke-opacity:1"/><path d="m -466.84291,874.69393 0,-2.5 c 0,-2.2091 -1.79086,-4 -4,-4 l 0,0 c -2.20914,0 -4,1.7909 -4,4 l 0,2.5 -0.24914,10.7571 c 0,0 0.19598,1.7113 0.60702,2.4413 0.42296,0.751 1.15718,1.2838 1.82106,1.831 0.56419,0.465 1.82106,1.2206 1.82106,1.2206 0,0 1.25687,-0.7556 1.82106,-1.2206 0.66388,-0.5472 1.39811,-1.08 1.82106,-1.831 0.41105,-0.73 0.60702,-2.4413 0.60702,-2.4413 z" id="path9814-5" style="fill:#ffd158;fill-opacity:1;fill-rule:evenodd;stroke:none;stroke-width:1px;stroke-linecap:butt;stroke-linejoin:miter;stroke-opacity:1"/><path d="m -470.76367,878.44228 0.002,0.22851 c -0.0418,0.1144 -0.2346,0.57276 -0.38867,0.94532 0.22348,0.88272 0.52495,1.71811 0.92969,2.4375 0.99894,1.77544 2.25713,3.17778 3.51953,4.08203 0.0522,-0.32058 0.10742,-0.68555 0.10742,-0.68555 l -0.004,-0.16211 c -1.12379,-0.7824 -2.24944,-2.02697 -3.13867,-3.60742 -0.51917,-0.92279 -0.82953,-2.0687 -1.02734,-3.23828 z" id="path42802" style="opacity:1;fill:#ecc355;fill-opacity:1;stroke:none;stroke-width:0.99999988;stroke-linecap:butt;stroke-linejoin:round;stroke-miterlimit:4;stroke-dasharray:none;stroke-opacity:1"/><path d="m -475.02734,882.69423 -0.0234,1 8.41601,0 -0.0234,-1 z m -0.0469,2 -0.0176,0.75586 c 0,0 0.0325,0.19302 0.0391,0.24414 l 8.41992,0 c 0.007,-0.0511 0.0391,-0.24414 0.0391,-0.24414 l -0.0176,-0.75586 z m 0.20117,2 c 0.0803,0.3641 0.18456,0.71196 0.3125,1 l 7.43555,0 c 0.12795,-0.28804 0.23217,-0.6359 0.3125,-1 z m 1.02539,2 c 0.35662,0.35882 0.75917,0.68053 1.14844,1 l 3.71289,0 c 0.38927,-0.31947 0.79182,-0.64118 1.14844,-1 z" id="path24190-0" style="color:#000000;font-style:normal;font-variant:normal;font-weight:normal;font-stretch:normal;font-size:medium;line-height:normal;font-family:sans-serif;text-indent:0;text-align:start;text-decoration:none;text-decoration-line:none;text-decoration-style:solid;text-decoration-color:#000000;letter-spacing:normal;word-spacing:normal;text-transform:none;direction:ltr;writing-mode:lr-tb;baseline-shift:baseline;text-anchor:start;white-space:normal;clip-rule:nonzero;display:inline;overflow:visible;visibility:visible;opacity:1;isolation:auto;mix-blend-mode:normal;color-interpolation:sRGB;color-interpolation-filters:linearRGB;solid-color:#000000;solid-opacity:1;fill:#3b3c3d;fill-opacity:1;fill-rule:evenodd;stroke:none;stroke-width:1.00000429;stroke-linecap:round;stroke-linejoin:round;stroke-miterlimit:4;stroke-dasharray:none;stroke-dashoffset:0;stroke-opacity:1;color-rendering:auto;image-rendering:auto;shape-rendering:auto;text-rendering:auto;enable-background:accumulate"/><path d="m -470.93104,872.20258 c 0,0 -5.4955,2.71858 -7.33911,6.03568 -1.84358,3.317 -1.93901,6.7552 -0.21444,7.7088 1.72456,0.9534 4.59743,-0.9494 6.44106,-4.2664 0.17937,-0.3227 1.14735,-2.641 1.28195,-3.0092" id="path9868-1" style="opacity:1;fill:#a9c3c2;fill-opacity:1;stroke:none;stroke-width:1;stroke-linecap:round;stroke-linejoin:round;stroke-miterlimit:4;stroke-dasharray:none;stroke-opacity:1"/><path d="m -470.8418,872.19618 c 0,0 -0.35221,0.18135 -0.77929,0.41407 -0.0733,1.60902 -0.0825,4.40646 0.52148,6.88086 0.12571,-0.30557 0.30159,-0.72102 0.33789,-0.82032 z" id="path42797" style="opacity:0.1;fill:#3b3c3d;fill-opacity:1;stroke:none;stroke-width:0.99999994;stroke-linecap:butt;stroke-linejoin:round;stroke-miterlimit:4;stroke-dasharray:none;stroke-opacity:1"/><path d="m -469.81836,882.69423 c 0.22168,0.35082 0.45029,0.6843 0.68945,1 l 2.49414,0 -0.0234,-1 z m 1.52344,2 c 0.34476,0.37186 0.69746,0.70296 1.05469,1 l 0.60742,0 c 0.0114,-0.0742 0.0391,-0.24414 0.0391,-0.24414 l -0.0176,-0.75586 z" id="path42804" style="opacity:1;fill:#323334;fill-opacity:1;stroke:none;stroke-width:0.99999988;stroke-linecap:butt;stroke-linejoin:round;stroke-miterlimit:4;stroke-dasharray:none;stroke-opacity:1"/><path d="m -470.95181,872.19706 c 0,0 -0.65063,6.1655 1.21566,9.4827 1.86628,3.317 4.77418,5.22 6.51995,4.2666 1.74578,-0.9536 1.64876,-4.3916 -0.2175,-7.7086 -1.86628,-3.3171 -7.51811,-6.0407 -7.51811,-6.0407 z" id="path9872-2" style="opacity:1;fill:#a9c3c2;fill-opacity:1;stroke:none;stroke-width:0.99999994;stroke-linecap:butt;stroke-linejoin:round;stroke-miterlimit:4;stroke-dasharray:none;stroke-opacity:1"/></g></g></svg>