<?xml version="1.0" encoding="UTF-8"?>
<!DOCTYPE svg PUBLIC "-//W3C//DTD SVG 1.1//EN" "http://www.w3.org/Graphics/SVG/1.1/DTD/svg11.dtd">
<!-- Creator: CorelDRAW -->
<svg xmlns="http://www.w3.org/2000/svg" xml:space="preserve" width="6.82666in" height="6.82666in" style="shape-rendering:geometricPrecision; text-rendering:geometricPrecision; image-rendering:optimizeQuality; fill-rule:evenodd; clip-rule:evenodd"
viewBox="0 0 6.82666 6.82666"
 xmlns:xlink="http://www.w3.org/1999/xlink">
 <defs>
  <style type="text/css">
   <![CDATA[
    .fil1 {fill:none}
    .fil0 {fill:black;fill-rule:nonzero}
   ]]>
  </style>
 </defs>
 <g id="Layer_x0020_1">
  <metadata id="CorelCorpID_0Corel-Layer"/>
  <g id="_170533688">
   <g>
    <path id="_345241120" class="fil0" d="M4.50892 2.01756c0.0629528,0.0394803 0.112965,0.0834685 0.147394,0.130909 0.0360472,0.0496811 0.0554094,0.103059 0.0554094,0.159114 0,0.14813 -0.136264,0.277768 -0.356555,0.367606 -0.205693,0.0838898 -0.488728,0.13578 -0.800319,0.13578 -0.311591,0 -0.594622,-0.0518898 -0.800315,-0.13578 -0.220291,-0.0898386 -0.356555,-0.219476 -0.356555,-0.367606 0,-0.0560551 0.0193622,-0.109433 0.0554094,-0.159114 0.0344252,-0.0474449 0.0844409,-0.0914291 0.14739,-0.130909l0.0566693 0.09c-0.0513858,0.0322244 -0.0913937,0.067 -0.117807,0.103406 -0.0227638,0.031374 -0.0349921,0.0638386 -0.0349921,0.0966181 0,0.100425 0.110783,0.195819 0.289886,0.268858 0.193697,0.0789961 0.462445,0.127858 0.760315,0.127858 0.297874,0 0.566622,-0.0488622 0.760319,-0.127858 0.179102,-0.0730394 0.289886,-0.168433 0.289886,-0.268858 0,-0.0327795 -0.0122283,-0.0652441 -0.0349921,-0.0966181 -0.0264213,-0.0364055 -0.0664252,-0.0711811 -0.117811,-0.103406l0.0566693 -0.09z"/>
    <path id="_345231880" class="fil0" d="M4.63176 2.4058c0.062122,0.0418937 0.111358,0.0882087 0.14528,0.137957 0.0351575,0.051563 0.0539528,0.1065 0.0539528,0.163874 0,0.161559 -0.14961,0.303358 -0.391484,0.402004 -0.227283,0.092689 -0.54013,0.150024 -0.884654,0.150024 -0.344524,0 -0.657374,-0.0573346 -0.88465,-0.150024 -0.241874,-0.0986457 -0.391484,-0.240445 -0.391484,-0.402004 0,-0.057374 0.0187953,-0.112311 0.0539528,-0.163874 0.0339213,-0.049748 0.0831575,-0.096063 0.14528,-0.137957l0.0595827 0.0883307c-0.0511929,0.0345236 -0.0908543,0.0713543 -0.116949,0.109626 -0.0229331,0.0336378 -0.0351969,0.0684961 -0.0351969,0.103874 0,0.113858 0.124134,0.221409 0.324815,0.303256 0.21528,0.0877953 0.513846,0.142102 0.84465,0.142102 0.330803,0 0.62937,-0.0543071 0.844654,-0.142102 0.200681,-0.0818465 0.324815,-0.189398 0.324815,-0.303256 0,-0.035378 -0.0122638,-0.0702362 -0.0351969,-0.103874 -0.0260945,-0.0382717 -0.0657559,-0.0751024 -0.116949,-0.109626l0.0595827 -0.0883307z"/>
    <path id="_345229264" class="fil0" d="M4.75953 2.80688c0.0568031,0.0428031 0.101646,0.0895551 0.132555,0.139484 0.0317205,0.0512559 0.0485787,0.105287 0.0485787,0.161323 0,0.173909 -0.161882,0.326894 -0.42361,0.43363 -0.247126,0.100783 -0.587394,0.163126 -0.962205,0.163126 -0.374811,0 -0.715075,-0.0623425 -0.962201,-0.163126 -0.261728,-0.106736 -0.42361,-0.25972 -0.42361,-0.43363 0,-0.0560354 0.0168583,-0.110067 0.0485787,-0.161323 0.0309094,-0.0499291 0.075752,-0.0966811 0.132555,-0.139484l0.0641654 0.085c-0.0467244,0.0352087 -0.0827205,0.0722244 -0.106303,0.110319 -0.0211102,0.0341063 -0.0323268,0.0694646 -0.0323268,0.105488 0,0.126205 0.136409,0.244945 0.356941,0.334882 0.23513,0.0958898 0.56111,0.155205 0.922201,0.155205 0.361091,0 0.687075,-0.059315 0.922205,-0.155205 0.220531,-0.089937 0.356941,-0.208677 0.356941,-0.334882 0,-0.0360236 -0.0112165,-0.0713819 -0.0323268,-0.105488 -0.0235827,-0.0380945 -0.0595787,-0.0751102 -0.106303,-0.110319l0.0641654 -0.085z"/>
    <path id="_345229624" class="fil0" d="M4.87379 3.21102c0.0520315,0.0433701 0.0927441,0.0899055 0.12048,0.138945 0.0285394,0.0504606 0.0436299,0.10328 0.0436299,0.157776 0,0.184858 -0.172772,0.347756 -0.452094,0.461673 -0.264728,0.107961 -0.629299,0.17474 -1.03096,0.17474 -0.401657,0 -0.766228,-0.0667795 -1.03096,-0.17474 -0.279319,-0.113917 -0.452091,-0.276815 -0.452091,-0.461673 0,-0.0544961 0.0150906,-0.107315 0.0436299,-0.157776 0.0277362,-0.0490394 0.0684488,-0.0955748 0.12048,-0.138945l0.0679134 0.0816693c-0.0419921,0.035 -0.0744134,0.0717874 -0.0958976,0.109772 -0.0192677,0.0340669 -0.0294567,0.0693228 -0.0294567,0.10528 0,0.137157 0.147291,0.265807 0.385421,0.362925 0.25272,0.103067 0.603016,0.166819 0.990957,0.166819 0.387941,0 0.738236,-0.063752 0.990957,-0.166819 0.238134,-0.0971181 0.385425,-0.225768 0.385425,-0.362925 0,-0.0359567 -0.010189,-0.0712126 -0.0294567,-0.10528 -0.0214843,-0.0379843 -0.0539055,-0.0747717 -0.0958976,-0.109772l0.0679134 -0.0816693z"/>
    <path id="_345242080" class="fil0" d="M4.97282 3.61848c0.0467283,0.0428701 0.0832756,0.0886772 0.108272,0.136882 0.0253819,0.0489409 0.0387441,0.0999291 0.0387441,0.152437 0,0.194087 -0.181945,0.365339 -0.476091,0.485299 -0.279559,0.114008 -0.66461,0.184528 -1.0889,0.184528 -0.424287,0 -0.809343,-0.0705197 -1.08889,-0.184528 -0.294146,-0.119961 -0.476091,-0.291213 -0.476091,-0.485299 0,-0.0525079 0.0133622,-0.103496 0.0387441,-0.152437 0.0249961,-0.0482047 0.0615433,-0.0940118 0.108272,-0.136882l0.0720787 0.0783307c-0.037748,0.0346339 -0.0667205,0.0705669 -0.0857677,0.107299 -0.0174606,0.0336732 -0.0266575,0.0683701 -0.0266575,0.103689 0,0.146382 0.156465,0.28339 0.409421,0.386551 0.267551,0.109114 0.638327,0.176606 1.04889,0.176606 0.410567,0 0.781346,-0.0674921 1.0489,-0.176606 0.252957,-0.103161 0.409421,-0.240169 0.409421,-0.386551 0,-0.0353189 -0.00919685,-0.0700157 -0.0266575,-0.103689 -0.0190472,-0.0367323 -0.0480197,-0.0726654 -0.0857677,-0.107299l0.0720787 -0.0783307z"/>
    <path id="_345242416" class="fil0" d="M4.95483 4.14507c0.0267638,0.0332047 0.0474331,0.0678425 0.061437,0.103677 0.0142362,0.0364173 0.0216339,0.0737677 0.0216339,0.111807 0,0.184858 -0.172772,0.347756 -0.452094,0.461673 -0.264728,0.107961 -0.629299,0.17474 -1.03096,0.17474 -0.401657,0 -0.766228,-0.0667795 -1.03096,-0.17474 -0.279319,-0.113917 -0.452091,-0.276815 -0.452091,-0.461673 0,-0.0380394 0.00739764,-0.0753858 0.0216299,-0.111807 0.0140039,-0.0358346 0.0346732,-0.0704685 0.061437,-0.103677l0.0829134 0.0666693c-0.0199291,0.0247283 -0.0351378,0.0500472 -0.045185,0.0757559 -0.00929134,0.0237835 -0.014126,0.048189 -0.014126,0.0730591 0,0.137157 0.147291,0.265807 0.385421,0.362925 0.25272,0.103067 0.603016,0.166819 0.990957,0.166819 0.387941,0 0.738236,-0.063752 0.990957,-0.166819 0.238134,-0.0971181 0.385425,-0.225768 0.385425,-0.362925 0,-0.0248701 -0.00483465,-0.0492795 -0.0141299,-0.0730591 -0.0100472,-0.0257087 -0.025252,-0.0510276 -0.045185,-0.0757559l0.0829134 -0.0666693z"/>
    <path id="_345238504" class="fil0" d="M4.83869 4.61083c0.0326535,0.0348425 0.0579882,0.0715197 0.0751969,0.109713 0.0175866,0.0390276 0.0267795,0.0793701 0.0267795,0.120693 0,0.173909 -0.161882,0.326894 -0.42361,0.43363 -0.247126,0.100783 -0.587394,0.163126 -0.962205,0.163126 -0.374811,0 -0.715075,-0.0623425 -0.962201,-0.163126 -0.261728,-0.106736 -0.42361,-0.25972 -0.42361,-0.43363 0,-0.0413228 0.00919291,-0.0816654 0.0267795,-0.120693 0.0172087,-0.0381929 0.0425433,-0.0748701 0.0751969,-0.109713l0.0774961 0.0729134c-0.0244882,0.026126 -0.0432362,0.0530669 -0.0556142,0.0805472 -0.0112874,0.0250472 -0.017189,0.0507756 -0.017189,0.0769449 0,0.126205 0.136409,0.244945 0.356941,0.334882 0.23513,0.0958898 0.56111,0.155205 0.922201,0.155205 0.361091,0 0.687075,-0.059315 0.922205,-0.155205 0.220531,-0.089937 0.356941,-0.208677 0.356941,-0.334882 0,-0.0261693 -0.00590157,-0.0518976 -0.017189,-0.0769449 -0.012378,-0.0274803 -0.031126,-0.0544213 -0.0556142,-0.0805472l0.0774961 -0.0729134z"/>
    <path id="_345243160" class="fil0" d="M4.76711 5.06977c0.0206181,0.027563 0.0365039,0.0561693 0.0472283,0.0856299 0.0109606,0.0301142 0.0166457,0.0608228 0.0166457,0.091937 0,0.161559 -0.14961,0.303358 -0.391484,0.402004 -0.227283,0.092689 -0.54013,0.150024 -0.884654,0.150024 -0.344524,0 -0.657374,-0.0573346 -0.88465,-0.150024 -0.241874,-0.0986457 -0.391484,-0.240445 -0.391484,-0.402004 0,-0.0311142 0.00568504,-0.0618228 0.0166457,-0.091937 0.0107244,-0.0294606 0.0266102,-0.0580669 0.0472283,-0.0856299l0.085 0.063748c-0.0142087,0.0189961 -0.0250512,0.0384213 -0.0322283,0.0581339 -0.00656693,0.0180472 -0.00997638,0.0366457 -0.00997638,0.055685 0,0.113854 0.124134,0.221409 0.324815,0.303256 0.21528,0.0877953 0.513846,0.142102 0.84465,0.142102 0.330803,0 0.62937,-0.0543071 0.844654,-0.142102 0.200681,-0.0818465 0.324815,-0.189402 0.324815,-0.303256 0,-0.0190394 -0.00340945,-0.0376378 -0.00997638,-0.055685 -0.00717717,-0.0197126 -0.0180197,-0.0391378 -0.0322283,-0.0581339l0.085 -0.063748z"/>
    <path id="_345245104" class="fil0" d="M3.55485 1.53561c0.269047,0 0.513567,0.0448583 0.69139,0.117378 0.192409,0.0784724 0.311429,0.192406 0.311429,0.323185 0,0.13078 -0.119016,0.244713 -0.311433,0.323181 -0.177823,0.0725197 -0.422335,0.117378 -0.691386,0.117378 -0.269051,0 -0.513563,-0.0448583 -0.691382,-0.117378 -0.192417,-0.0784685 -0.311433,-0.192402 -0.311433,-0.323181 0,-0.13078 0.11902,-0.244713 0.311429,-0.323185 0.177823,-0.0725197 0.422335,-0.117378 0.691386,-0.117378zm0.65139 0.216126c-0.165819,-0.067626 -0.396059,-0.109457 -0.65139,-0.109457 -0.255331,0 -0.485567,0.0418307 -0.651386,0.109457 -0.15122,0.0616732 -0.24476,0.141362 -0.24476,0.224437 0,0.0830748 0.0935433,0.162764 0.244764,0.224433 0.165811,0.067626 0.396051,0.109457 0.651382,0.109457 0.255331,0 0.485567,-0.0418307 0.651386,-0.109457 0.15122,-0.0616693 0.244764,-0.141358 0.244764,-0.224433 0,-0.0830748 -0.0935394,-0.162764 -0.24476,-0.224437z"/>
   </g>
   <g>
    <path id="_345234712" class="fil0" d="M1.8072 1.94972l0.161154 0.0930394 0.000149606 0.000110236 6.29921e-005 -0.000106299c0.0504882,0.0291496 0.0844567,0.076248 0.0984882,0.12863 0.0140039,0.052248 0.00810236,0.109953 -0.0210709,0.160488l-7.87402e-006 1.1811e-005 -0.031878 0.0552165 -0.0196772 0.0340866 -0.0380276 -0.00866929c-0.0465906,-0.0106181 -0.102465,0.012311 -0.155961,0.0592047 -0.0594291,0.0520945 -0.113685,0.132094 -0.149976,0.229524 -0.0206063,0.0553268 -0.0331535,0.110323 -0.0381496,0.161988 -0.00508268,0.0526063 -0.00237795,0.101295 0.00757087,0.142831l0.00878346 0.0366654 -0.0317008 0.0204173c-0.0327008,0.0210669 -0.0709134,0.0327362 -0.109992,0.0337677 -0.037689,0.000992126 -0.0760709,-0.00801969 -0.110945,-0.0281575l5.11811e-005 -9.05512e-005 -0.161 -0.0929528c-0.0351969,-0.0203189 -0.0622953,-0.0490433 -0.0801772,-0.0819961l0.000161417 -8.66142e-005c-0.0185709,-0.0342559 -0.0275315,-0.073122 -0.0256339,-0.111984l0.00184646 -0.0377717 0.0362795 -0.0107677c0.0409016,-0.0121339 0.0843465,-0.0340906 0.127248,-0.0647126 0.0420512,-0.0300197 0.0833819,-0.0684055 0.121169,-0.114134 0.0662087,-0.0801181 0.108339,-0.167028 0.12372,-0.244437 0.0138819,-0.0698819 0.00590551,-0.129705 -0.0264213,-0.164563l-0.0266732 -0.0287638 0.0195906 -0.0339409 0.0318819 -0.0552244 0.000110236 -0.000149606 -0.000106299 -6.29921e-005c0.0291496,-0.0504882 0.076248,-0.0844567 0.12863,-0.0984882 0.052248,-0.0140039 0.109953,-0.00810236 0.160488,0.0210709l1.1811e-005 7.87402e-006zm0.107346 0.184602l-0.160268 -0.0925276 -1.1811e-005 -7.87402e-006c-0.0249882,-0.0144252 -0.0538031,-0.0172717 -0.0800709,-0.0102323 -0.0261339,0.007 -0.0495945,0.023874 -0.0640472,0.0489055l-0.000519685 0.000688976 -0.0138622 0.0240118c0.0367992,0.059626 0.0456142,0.138972 0.0285039,0.225091 -0.0186693,0.0939724 -0.0685039,0.197886 -0.146224,0.291933 -0.0435157,0.0526535 -0.0918386,0.0973819 -0.141579,0.13289 -0.038563,0.0275236 -0.0781024,0.0495079 -0.117063,0.0653701 0.00214567,0.00779921 0.00517323,0.0153386 0.0090315,0.0224488l0.000208661 0c0.0090315,0.0166457 0.0223504,0.0309449 0.0393425,0.040752l0.161157 0.0930433 0.000208661 0c0.0173189,0.01 0.0363898,0.0144764 0.0551181,0.0139843 0.0080748,-0.000212598 0.0161181,-0.00137008 0.0239528,-0.0034252 -0.00575984,-0.0416732 -0.00650787,-0.0868858 -0.00195276,-0.134004 0.00585827,-0.0606024 0.0204646,-0.124803 0.0444016,-0.189075 0.0425748,-0.114303 0.107598,-0.209358 0.179559,-0.272437 0.0661378,-0.0579764 0.139268,-0.0900787 0.209189,-0.0880236l0.0142795 -0.0247362 7.87402e-006 -1.1811e-005c0.0144252,-0.0249882 0.0172717,-0.0538031 0.0102323,-0.0800709 -0.007,-0.0261339 -0.023874,-0.0495945 -0.0489055,-0.0640472l-0.000688976 -0.000519685z"/>
    <g>
     <path id="_345234616" class="fil0" d="M1.88081 1.94378c0.013,-0.0263465 0.0021811,-0.058252 -0.0241654,-0.071252 -0.0263465,-0.013 -0.058252,-0.0021811 -0.071252,0.0241654l-0.0401181 0.0813622c-0.013,0.0263465 -0.0021811,0.058252 0.0241654,0.071252 0.0263465,0.013 0.058252,0.0021811 0.071252,-0.0241654l0.0401181 -0.0813622z"/>
     <path id="_345243136" class="fil0" d="M2.02529 2.03528c0.0163346,-0.0243898 0.00980709,-0.0574134 -0.0145827,-0.073748 -0.0243898,-0.0163346 -0.0574134,-0.00980709 -0.073748,0.0145827l-0.0504016 0.0754252c-0.0163346,0.0243898 -0.00980709,0.0574134 0.0145827,0.073748 0.0243898,0.0163346 0.0574134,0.00980709 0.073748,-0.0145827l0.0504016 -0.0754252z"/>
    </g>
    <g>
     <path id="_345241288" class="fil0" d="M1.48388 2.13647l-7.87402e-006 -3.93701e-006c-0.0378268,-0.0312598 -0.098248,-0.0316457 -0.165343,-0.00699606 -0.0764331,0.0280827 -0.158606,0.0876732 -0.228394,0.172106l-1.9685e-005 2.75591e-005c-0.069811,0.0844764 -0.112866,0.176382 -0.126031,0.256657 -0.0115709,0.0705354 0.000224409,0.129835 0.038126,0.161154 0.0378268,0.0312598 0.098248,0.0316457 0.165346,0.00699606 0.0764488,-0.0280827 0.158634,-0.087689 0.228417,-0.172134 0.069811,-0.0844764 0.112866,-0.176382 0.126031,-0.256657 0.0115669,-0.0705354 -0.000228346,-0.129831 -0.038126,-0.16115zm-0.20202 -0.107c0.102551,-0.0376772 0.20063,-0.0323465 0.269921,0.0249134l7.87402e-006 3.93701e-006c0.0692205,0.0572008 0.0928976,0.1525 0.0752165,0.260319 -0.0160827,0.0980748 -0.0670118,0.208331 -0.148953,0.307484 -0.0819724,0.0991929 -0.180618,0.169976 -0.273827,0.20422 -0.102551,0.0376772 -0.200638,0.0323465 -0.269929,-0.0249173 -0.0692205,-0.0572008 -0.0928976,-0.152504 -0.0752126,-0.260319 0.0160827,-0.0980669 0.0670039,-0.208315 0.148937,-0.307465l2.3622e-005 -3.14961e-005c0.0819724,-0.099185 0.180614,-0.169965 0.273815,-0.204209z"/>
     <path id="_345240160" class="fil0" d="M2.00559 2.31653c0.0842677,0.0313898 0.137945,0.113685 0.156591,0.221339 0.0169016,0.0975709 0.0048622,0.218311 -0.0401142,0.339063 -0.0449961,0.120795 -0.114917,0.220035 -0.191579,0.282811 -0.0844528,0.0691535 -0.178843,0.0962323 -0.26313,0.0648346 -0.0842717,-0.0313898 -0.137949,-0.113685 -0.156594,-0.221339 -0.0169016,-0.0975748 -0.0048622,-0.218311 0.0401142,-0.339063 0.045,-0.120803 0.114925,-0.220039 0.191583,-0.282815 0.0844449,-0.0691535 0.178839,-0.0962244 0.26313,-0.0648307zm0.0515906 0.239252c-0.0121969,-0.0704213 -0.0427244,-0.122551 -0.0886772,-0.139669 -0.0459331,-0.0171063 -0.103165,0.00238976 -0.158547,0.0477441 -0.0631732,0.0517323 -0.121335,0.134957 -0.159496,0.237406 -0.0381772,0.102492 -0.0486417,0.203551 -0.0346969,0.284063 0.0121969,0.0704252 0.0427283,0.122551 0.0886811,0.139669 0.0459291,0.0171102 0.103161,-0.0023937 0.158547,-0.047748 0.0631732,-0.0517283 0.121335,-0.134961 0.159492,-0.237402 0.0381772,-0.102492 0.0486417,-0.203551 0.0346969,-0.284063z"/>
    </g>
    <g>
     <polygon id="_345238432" class="fil0" points="1.57213,2.03969 2.00797,2.29132 1.95506,2.3834 1.51922,2.13177 "/>
     <polygon id="_345240928" class="fil0" points="1.58863,2.31383 1.76231,2.41411 1.7094,2.50619 1.53571,2.40591 "/>
     <polygon id="_345240688" class="fil0" points="1.48302,2.51748 1.63875,2.60739 1.58583,2.69947 1.43011,2.60956 "/>
     <polygon id="_345243472" class="fil0" points="1.3088,2.68152 1.5838,2.84029 1.53089,2.93237 1.25589,2.7736 "/>
    </g>
    <path id="_345236296" class="fil0" d="M1.36815 3.00267c0.0146102,-0.0254252 0.00584252,-0.0578858 -0.0195827,-0.0724961 -0.0254252,-0.0146102 -0.0578858,-0.00584252 -0.0724961,0.0195827l-0.0925197 0.160252c-0.0146102,0.0254252 -0.00584252,0.0578858 0.0195827,0.0724961 0.0254252,0.0146102 0.0578858,0.00584252 0.0724961,-0.0195827l0.0925197 -0.160252z"/>
   </g>
   <g>
    <path id="_345233848" class="fil0" d="M5.07238 1.2022l-0.160268 0.0925276 -0.000688976 0.000519685c-0.0250315,0.0144528 -0.0419055,0.0379134 -0.0489055,0.0640472 -0.00703937,0.0262677 -0.00419291,0.0550827 0.0102323,0.0800709l7.87402e-006 1.1811e-005 0.0142795 0.0247362c0.0699213,-0.00205512 0.143051,0.0300472 0.209189,0.0880236 0.0719606,0.0630787 0.136984,0.158134 0.179559,0.272437 0.023937,0.0642717 0.0385433,0.128472 0.0444016,0.189075 0.00455512,0.0471181 0.00380709,0.0923307 -0.00195276,0.134004 0.00783465,0.00205906 0.015874,0.00320866 0.0239488,0.00342126 0.0188543,0.000496063 0.0380039,-0.00398031 0.0553307,-0.0139803l0.161157 -0.0930433c0.0169921,-0.00980709 0.030311,-0.0241063 0.0393425,-0.040752l0.000208661 0c0.00385827,-0.00711024 0.00687795,-0.0146457 0.00902756,-0.0224449 -0.0389646,-0.0158661 -0.0785,-0.0378465 -0.117063,-0.065378 -0.0497402,-0.0355118 -0.0980669,-0.0802323 -0.141575,-0.132886 -0.0777205,-0.0940472 -0.127555,-0.197961 -0.146224,-0.291933 -0.0171102,-0.086122 -0.00829528,-0.165465 0.0285039,-0.225091l-0.0138622 -0.0240118 -0.000519685 -0.000688976c-0.0144528,-0.0250315 -0.0379134,-0.0419055 -0.0640472,-0.0489055 -0.0262677,-0.00703937 -0.0550827,-0.00419291 -0.0800709,0.0102323l-1.1811e-005 7.87402e-006zm-0.214075 0.000964567l0.161154 -0.0930394 1.1811e-005 -7.87402e-006c0.0505354,-0.0291732 0.10824,-0.0350748 0.160488,-0.0210709 0.0523819,0.0140315 0.0994803,0.048 0.12863,0.0984882l-0.000106299 6.29921e-005 0.000110236 0.000149606 0.0318819 0.0552244 0.0195906 0.0339409 -0.0266732 0.0287638c-0.0323268,0.0348583 -0.0403031,0.0946772 -0.0264213,0.164563 0.0153819,0.0774094 0.0575118,0.164319 0.12372,0.244437 0.0377835,0.0457244 0.0791142,0.0841102 0.121165,0.11413 0.0429016,0.030626 0.0863425,0.0525787 0.127252,0.0647165l0.0362795 0.0107717 0.00184646 0.0377677c0.00189764,0.0388622 -0.00706299,0.0777283 -0.0256339,0.111984l0.000161417 8.66142e-005c-0.0178819,0.0329528 -0.0449803,0.0616772 -0.0801772,0.0819961l-0.161157 0.0930433c-0.034874,0.0201299 -0.0731811,0.0291417 -0.11074,0.0281535 -0.0390709,-0.00102362 -0.0772874,-0.0126969 -0.109988,-0.0337638l-0.0317008 -0.0204173 0.00878346 -0.0366654c0.00994882,-0.0415354 0.0126535,-0.0902244 0.00757087,-0.142831 -0.00499606,-0.0516654 -0.0175433,-0.106661 -0.0381496,-0.161988 -0.0362913,-0.0974291 -0.0905472,-0.177429 -0.149976,-0.229524 -0.0534961,-0.0468937 -0.10937,-0.0698228 -0.155961,-0.0592047l-0.0380276 0.00866929 -0.0196772 -0.0340866 -0.031878 -0.0552165 -7.87402e-006 -1.1811e-005c-0.0291732,-0.0505354 -0.0350748,-0.10824 -0.0210709,-0.160488 0.0140315,-0.0523819 0.048,-0.0994803 0.0984882,-0.12863l6.29921e-005 0.000106299 0.000149606 -0.000110236z"/>
    <g>
     <path id="_345245176" class="fil0" d="M5.04127 1.05709c-0.013,-0.0263465 -0.0449055,-0.0371654 -0.071252,-0.0241654 -0.0263465,0.013 -0.0371654,0.0449055 -0.0241654,0.071252l0.0401181 0.0813622c0.013,0.0263465 0.0449055,0.0371654 0.071252,0.0241654 0.0263465,-0.013 0.0371654,-0.0449055 0.0241654,-0.071252l-0.0401181 -0.0813622z"/>
     <path id="_345231136" class="fil0" d="M4.8897 1.13652c-0.0163346,-0.0243898 -0.0493583,-0.0309173 -0.073748,-0.0145827 -0.0243898,0.0163346 -0.0309173,0.0493583 -0.0145827,0.073748l0.0504016 0.0754252c0.0163346,0.0243898 0.0493583,0.0309173 0.073748,0.0145827 0.0243898,-0.0163346 0.0309173,-0.0493583 0.0145827,-0.073748l-0.0504016 -0.0754252z"/>
    </g>
    <g>
     <path id="_345229480" class="fil0" d="M5.27487 1.21478c0.0692913,-0.0572638 0.167378,-0.0625906 0.269929,-0.0249134 0.0932087,0.034248 0.19185,0.105028 0.273823,0.20422 0.0819409,0.0991535 0.13287,0.209409 0.148953,0.307484 0.017685,0.107815 -0.00599213,0.203118 -0.0752126,0.260319 -0.0692913,0.0572638 -0.167382,0.0625906 -0.269933,0.0249134 -0.0932047,-0.0342441 -0.19185,-0.105024 -0.273823,-0.204217 -0.0819449,-0.0991614 -0.13287,-0.209409 -0.148953,-0.307484 -0.0176811,-0.107819 0.00599606,-0.203122 0.0752165,-0.260323zm0.23326 0.0750866c-0.0670945,-0.0246496 -0.12752,-0.0242677 -0.165346,0.00699213 -0.0379016,0.0313189 -0.0496969,0.090622 -0.0381299,0.161157 0.0131654,0.0802756 0.0562165,0.172177 0.126031,0.256657 0.0697835,0.0844449 0.151972,0.144047 0.228413,0.17213 0.0670945,0.0246496 0.127524,0.0242677 0.16535,-0.00699213 0.0379016,-0.0313189 0.0496969,-0.0906181 0.038126,-0.161154 -0.0131654,-0.0802756 -0.0562205,-0.172181 -0.126031,-0.256657 -0.0697874,-0.0844488 -0.151969,-0.144047 -0.228413,-0.172134z"/>
     <path id="_345236416" class="fil0" d="M4.85816 1.57651c-0.0459528,0.0171181 -0.0764803,0.069248 -0.0886772,0.139669 -0.0139449,0.0805118 -0.00348031,0.181571 0.0346969,0.284063 0.0381575,0.102441 0.0963189,0.185673 0.159492,0.237402 0.0553858,0.0453543 0.112618,0.0648583 0.158547,0.047748 0.0459528,-0.0171181 0.0764843,-0.0692441 0.0886811,-0.139673 0.0139449,-0.0805079 0.00348031,-0.181567 -0.0346969,-0.284059 -0.0381614,-0.102449 -0.0963228,-0.185673 -0.159496,-0.237406 -0.0553819,-0.0453543 -0.112614,-0.0648504 -0.158547,-0.0477441zm-0.193677 0.121756c0.0186457,-0.107654 0.0723228,-0.189949 0.156591,-0.221339 0.0842913,-0.0313937 0.178685,-0.00432283 0.26313,0.0648307 0.0766575,0.0627756 0.146583,0.162012 0.191583,0.282815 0.0449764,0.120752 0.0570157,0.241492 0.0401142,0.339059 -0.0186457,0.107657 -0.0723228,0.189953 -0.156594,0.221343 -0.0842874,0.0313976 -0.178677,0.0043189 -0.26313,-0.0648346 -0.0766614,-0.0627756 -0.146583,-0.162016 -0.191579,-0.282811 -0.0449764,-0.120752 -0.0570157,-0.241492 -0.0401142,-0.339063z"/>
    </g>
    <g>
     <polygon id="_170537576" class="fil0" points="5.30744,1.29217 4.8716,1.5438 4.81869,1.45172 5.25453,1.20009 "/>
     <polygon id="_170536040" class="fil0" points="5.29116,1.56631 5.11747,1.66659 5.06414,1.57451 5.23783,1.47423 "/>
     <polygon id="_170531888" class="fil0" points="5.39656,1.76996 5.24083,1.85987 5.18791,1.7678 5.34364,1.67789 "/>
     <polygon id="_170534168" class="fil0" points="5.57078,1.934 5.29578,2.09277 5.24286,2.00069 5.51786,1.84193 "/>
    </g>
    <path id="_170532248" class="fil0" d="M5.55059 2.11016c-0.0146102,-0.0254252 -0.0470709,-0.0341929 -0.0724961,-0.0195827 -0.0254252,0.0146102 -0.0341929,0.0470709 -0.0195827,0.0724961l0.0925197 0.160252c0.0146102,0.0254252 0.0470709,0.0341929 0.0724961,0.0195827 0.0254252,-0.0146102 0.0341929,-0.0470709 0.0195827,-0.0724961l-0.0925197 -0.160252z"/>
   </g>
  </g>
 </g>
 <rect class="fil1" width="6.82666" height="6.82666"/>
</svg>
