<?xml version="1.0" encoding="iso-8859-1"?>
<!-- Generator: Adobe Illustrator 19.1.0, SVG Export Plug-In . SVG Version: 6.00 Build 0)  -->
<svg version="1.1" id="Capa_1" xmlns="http://www.w3.org/2000/svg" xmlns:xlink="http://www.w3.org/1999/xlink" x="0px" y="0px"
	 viewBox="0 0 217.228 217.228" style="enable-background:new 0 0 217.228 217.228;" xml:space="preserve">
<g>
	<g id="group-82svg">
		<path id="path-1_141_" style="fill:#FBB713;" d="M55.042,178.76H39.628c-2.973,0-5.382,1.814-5.382,4.053s2.409,4.054,5.382,4.054
			h0.717c2.972,0,5.381,1.815,5.381,4.054c0,2.239-2.409,4.053-5.381,4.053H7.21c-2.972,0-5.381,1.815-5.381,4.054
			s2.409,4.054,5.381,4.054h39.82h81.39c2.972,0,5.381-1.815,5.381-4.054s-2.409-4.054-5.381-4.054h-9.196
			c-2.972,0-5.381-1.814-5.381-4.053c0-2.239,2.409-4.054,5.381-4.054h36.118c2.972,0,5.381-1.815,5.381-4.054
			s-2.409-4.053-5.381-4.053h-2.696H55.042z"/>
		<path id="path-2_141_" style="fill:#FBB713;" d="M150.636,204.166c-2.491,0-4.511-1.943-4.511-4.343s2.02-4.344,4.511-4.344
			h13.825c2.492,0,4.512,1.944,4.512,4.344s-2.02,4.343-4.512,4.343H150.636z"/>
		<path id="path-3_141_" style="fill:#FBB713;" d="M32.322,166.194h4.396c0.848,0,1.535-0.75,1.535-1.676
			c0-0.924-0.687-1.674-1.535-1.674h-0.204c-0.848,0-1.535-0.75-1.535-1.674c0-0.927,0.687-1.675,1.535-1.675h9.45
			c0.847,0,1.535-0.751,1.535-1.676s-0.688-1.676-1.535-1.676H34.607H11.394c-0.848,0-1.535,0.751-1.535,1.676
			s0.687,1.676,1.535,1.676h2.623c0.847,0,1.535,0.748,1.535,1.675c0,0.924-0.688,1.674-1.535,1.674H1.535
			c-0.848,0-1.535,0.75-1.535,1.674c0,0.926,0.687,1.676,1.535,1.676h2.95H32.322z"/>
		<path id="path-4_141_" style="fill:#FBB713;" d="M145.643,156.325c-27.687,27.557-86.303,13.894-86.303,13.894
			s-13.727-58.34,13.959-85.897c27.688-27.557,66.327-33.778,86.305-13.895C179.581,90.311,173.33,128.768,145.643,156.325z"/>
		<path id="path-5_140_" style="fill:#142A3B;" d="M83.952,75.14l70.916,70.582c4.751-6.333,8.496-12.994,11.209-19.703
			l-62.329-62.036C97.009,66.684,90.316,70.412,83.952,75.14z"/>
		<path id="path-6_137_" style="fill:#142A3B;" d="M56.574,125.037l48.161,47.934c8.443-0.85,17.057-2.683,24.902-6.074
			l-66.96-66.645C59.27,108.06,57.43,116.633,56.574,125.037z"/>
		<path id="path-7_134_" style="opacity:0.35;enable-background:new    ;" d="M159.604,70.427c-2.931-2.917-6.3-5.204-9.94-7.012
			c18.651,20.181,12.191,57.682-14.982,84.727c-20.714,20.617-58.734,18.162-76.574,15.618c0.667,4.04,1.232,6.459,1.232,6.459
			s58.616,13.663,86.303-13.894C173.331,128.768,179.581,90.311,159.604,70.427z"/>
		<path id="path-8_110_" style="fill:#142A3B;" d="M149.473,50.222c9.934-9.887,33.204-2.759,33.204-2.759s7.162,23.16-2.773,33.047
			c-9.934,9.888-24.8,11.124-33.203,2.76C138.297,74.906,139.539,60.109,149.473,50.222z"/>
		<path id="path-9_95_" style="opacity:0.35;enable-background:new    ;" d="M182.676,47.463c0,0-1.725-0.52-4.392-1.083
			c1.532,7.188,3.394,21.454-3.86,28.675c-8.828,8.785-21.536,10.721-30.158,5.181c0.699,1.077,1.498,2.101,2.435,3.034
			c8.403,8.363,23.269,7.129,33.203-2.76C189.839,70.622,182.676,47.463,182.676,47.463z"/>
		<path id="path-10_86_" style="fill:#142A3B;" d="M210.195,69.016c-0.93,0-1.86-0.355-2.567-1.068
			c-1.41-1.416-1.403-3.709,0.014-5.12c1.513-1.504,2.344-3.503,2.344-5.63c0-2.126-0.831-4.125-2.344-5.63
			c-3.132-3.118-8.234-3.12-11.36-0.002l-11.901,11.843c-1.414,1.41-3.712,1.403-5.119-0.011c-1.411-1.418-1.404-3.711,0.014-5.119
			l11.897-11.843c5.947-5.925,15.624-5.925,21.579,0c2.884,2.873,4.476,6.695,4.476,10.762c0,4.068-1.592,7.89-4.48,10.764
			C212.041,68.664,211.118,69.016,210.195,69.016z"/>
		<path id="path-11_75_" style="fill:#142A3B;" d="M169.231,51.927c-0.929,0-1.859-0.355-2.567-1.066
			c-1.41-1.418-1.403-3.711,0.015-5.121l11.897-11.84c1.513-1.505,2.344-3.504,2.344-5.631s-0.831-4.125-2.344-5.631
			c-3.132-3.118-8.234-3.12-11.36-0.001c-1.421,1.41-3.716,1.404-5.123-0.011c-1.411-1.415-1.403-3.708,0.01-5.119
			c5.954-5.926,15.628-5.926,21.582,0c2.885,2.872,4.476,6.695,4.476,10.762c0,4.068-1.591,7.89-4.48,10.765l-11.897,11.839
			C171.08,51.575,170.154,51.927,169.231,51.927z"/>
		<path id="path-12_65_" style="opacity:0.8;fill:#EDEDED;enable-background:new    ;" d="M79.131,120.046
			c-14.696,0-26.61-11.857-26.61-26.485s11.914-26.485,26.61-26.485c14.697,0,58.776,26.485,58.776,26.485
			S93.828,120.046,79.131,120.046z"/>
		<path id="path-13_51_" style="opacity:0.8;fill:#EDEDED;enable-background:new    ;" d="M112.49,153.247
			c0,14.629,11.914,26.487,26.611,26.487c14.696,0,26.61-11.858,26.61-26.487c0-14.627-26.61-58.498-26.61-58.498
			S112.49,138.62,112.49,153.247z"/>
	</g>
</g>
<g>
</g>
<g>
</g>
<g>
</g>
<g>
</g>
<g>
</g>
<g>
</g>
<g>
</g>
<g>
</g>
<g>
</g>
<g>
</g>
<g>
</g>
<g>
</g>
<g>
</g>
<g>
</g>
<g>
</g>
</svg>
