<?xml version="1.0" ?><svg id="Layer_1" style="enable-background:new 0 0 128 128;" version="1.1" viewBox="0 0 128 128" xml:space="preserve" xmlns="http://www.w3.org/2000/svg" xmlns:xlink="http://www.w3.org/1999/xlink"><style type="text/css">
	.st0{fill:#191919;}
	.st1{fill:#5F5F5F;}
	.st2{fill:#D7E7F1;}
	.st3{fill:#DB2626;}
	.st4{fill:#FFFFFF;}
	.st5{fill:#BF1313;}
	.st6{fill:#330C03;}
	.st7{fill:#C64309;}
	.st8{fill:#912200;}
	.st9{fill:#1D1D26;}
	.st10{fill:#FD01FD;}
	.st11{fill:#9900CC;}
	.st12{fill:#9494F5;}
	.st13{fill:#E25F3B;}
	.st14{fill:#CC4627;}
	.st15{fill:#69D240;}
	.st16{fill:#565656;}
	.st17{fill:#F2D313;}
	.st18{fill:#D7E6F0;}
	.st19{fill:#666666;}
	.st20{fill:#7B7B7B;}
	.st21{fill:#262C3A;}
	.st22{fill:#A46637;}
	.st23{fill:#7F340A;}
	.st24{fill:#62C60A;}
	.st25{fill:#54A307;}
	.st26{fill:#E01931;}
</style><g><path class="st0" d="M64,124.3c-0.6,0-1-0.4-1-1v-10c0-0.6,0.4-1,1-1c0.6,0,1,0.4,1,1v10C65,123.8,64.6,124.3,64,124.3z"/></g><g><g><path class="st0" d="M85.7,49.4c-0.3,0-0.6-0.1-0.8-0.3c-0.4-0.4-0.3-1,0.1-1.4l10.7-9.3c0.2-0.2,0.4-0.3,0.7-0.3h9.5    c0.6,0,1,0.4,1,1s-0.4,1-1,1h-9.2l-10.4,9.1C86.2,49.2,85.9,49.4,85.7,49.4z"/></g><g><path class="st0" d="M43.1,49.4c-0.2,0-0.5-0.1-0.7-0.3L32,40h-9.2c-0.6,0-1-0.4-1-1s0.4-1,1-1h9.5c0.2,0,0.5,0.2,0.7,0.3    l10.7,9.3c0.4,0.4,0.5,1,0.1,1.4C43.6,49.2,43.4,49.4,43.1,49.4z"/></g></g><g><path class="st15" d="M53.5,15c-4.4,0-8.1,3.6-8.1,8.1c0,4.4,3.6,8.1,8.1,8.1s8.1-3.6,8.1-8.1C61.6,18.6,57.9,15,53.5,15z"/><path class="st15" d="M74.1,15C69.6,15,66,18.6,66,23c0,4.4,3.6,8.1,8.1,8.1c4.4,0,8.1-3.6,8.1-8.1C82.1,18.6,78.5,15,74.1,15z"/></g><path class="st16" d="M77,41.5c0,7.6-6.4,13.7-14,13.7l0,0c-7.6,0-14-6.2-14-13.7v-9.7C49,24.1,55.4,18,63,18l0,0  c7.6,0,14,6.2,14,13.7V41.5z"/><path class="st17" d="M87.8,69.8c0,4.2-0.8,8.3-2.1,12.2c-0.2,0.7-0.5,1.3-0.7,2c-1,2.6-2.2,5.2-3.5,7.5c-0.4,0.7-0.8,1.3-1.1,2  c-1.9,3.3-4.1,6.3-6.1,8.9c-0.5,0.6-1,1.3-1.5,1.8c-4.8,5.8-9,9.4-9,9.4s-4.1-3.6-9-9.4c-0.5-0.6-1-1.2-1.5-1.9  c-2-2.6-4.2-5.6-6.1-8.8c-0.4-0.7-0.8-1.3-1.1-2c-1.3-2.4-2.5-4.9-3.5-7.5c-0.3-0.7-0.5-1.3-0.7-2c-1.3-3.9-2.1-8-2.1-12.2  c0-12.9,3.4-22.4,8.7-30c4.1-6,9.5-0.3,15.3-0.3c5.3,0,10.3-6.2,14.3-1.1C84,46,87.8,56,87.8,69.8z"/><g><path d="M81.5,91c-0.4,1-0.8,2-1.1,2H47.2c-0.4,0-0.8-1-1.1-2H81.5z"/></g><g><path d="M74.2,102.2c-0.5,0.6-1,0.8-1.5,1.8H54.8c-0.5-1-1-1.2-1.5-1.9c0.2-0.1,0.3-0.1,0.5-0.1h19.9C73.9,102,74.1,102,74.2,102.2   z"/></g><g><path d="M85.7,82c-0.2,0-0.5,1-0.7,2H42.6c-0.3-1-0.5-2-0.7-2H85.7z"/></g><g><g><path class="st0" d="M92.1,114.3c-0.4,0-0.7-0.2-0.9-0.5l-3.9-7.4c-0.1-0.2-0.1-0.5-0.1-0.7l6.1-24.7l-9.6-7.6    c-0.4-0.3-0.5-1-0.2-1.4c0.3-0.4,1-0.5,1.4-0.2l10.1,8c0.3,0.2,0.4,0.6,0.3,1l-6.2,25l3.7,7.1c0.3,0.5,0.1,1.1-0.4,1.3    C92.4,114.3,92.3,114.3,92.1,114.3z"/></g><g><path class="st0" d="M35.5,114.3c-0.2,0-0.3,0-0.5-0.1c-0.5-0.3-0.7-0.9-0.4-1.3l3.7-7.1l-6.2-25c-0.1-0.4,0-0.8,0.3-1l10.1-8    c0.4-0.3,1.1-0.3,1.4,0.2c0.3,0.4,0.3,1.1-0.2,1.4l-9.6,7.6l6.1,24.7c0.1,0.2,0,0.5-0.1,0.7l-3.9,7.4    C36.2,114.1,35.8,114.3,35.5,114.3z"/></g></g><path class="st18" d="M48.5,39.8c0,0-26.9,10.7-31,59.9c0,0,28.3-3,38.7-26.2C66.6,50.2,48.5,39.8,48.5,39.8z"/><path class="st18" d="M79.3,39.8c0,0,26.9,10.7,31,59.9c0,0-28.3-3-38.7-26.2C61.2,50.2,79.3,39.8,79.3,39.8z"/><path class="st0" d="M66.4,19.5c-0.1,0-0.2,0-0.3,0c-0.5-0.1-0.8-0.7-0.7-1.2L69,5.1c0.1-0.5,0.7-0.8,1.2-0.7  c0.5,0.1,0.8,0.7,0.7,1.2l-3.6,13.1C67.2,19.2,66.8,19.5,66.4,19.5z"/><path class="st0" d="M60,19.5c-0.4,0-0.8-0.3-1-0.7L55.5,5.7c-0.1-0.5,0.2-1.1,0.7-1.2c0.5-0.1,1.1,0.2,1.2,0.7L61,18.2  c0.1,0.5-0.2,1.1-0.7,1.2C60.2,19.5,60.1,19.5,60,19.5z"/></svg>